<svg width="56" height="56" viewBox="0 0 56 56" fill="none" xmlns="http://www.w3.org/2000/svg">
<g clip-path="url(#clip0_3311_5749)">
<path d="M46.5068 23.5335L28.5743 33.7481C28.2515 33.9379 27.8528 33.9379 27.5206 33.7481L9.58803 23.5335C8.88553 23.1347 8.88553 22.119 9.58803 21.7108L27.5206 11.4962C27.8433 11.3063 28.242 11.3063 28.5743 11.4962L46.5068 21.7108C47.2093 22.1095 47.2093 23.1252 46.5068 23.5335Z" fill="#3DCFB6"/>
<path d="M43.4026 26.97V35.3904C43.4026 35.7701 43.2032 36.1119 42.8709 36.3017L28.5743 44.4468C28.2515 44.6367 27.8528 44.6367 27.5205 44.4468L13.2239 36.3017C12.8916 36.1119 12.6923 35.7701 12.6923 35.3904V26.97L20.619 31.4792L27.5205 35.4189C27.8433 35.6087 28.242 35.6087 28.5743 35.4189L35.4758 31.4792L43.4026 26.97Z" fill="#3DCFB6"/>
<path d="M51.7566 13.072L52.2502 12.7302C52.8483 12.3125 52.7723 11.4107 52.1173 11.0974L48.1871 9.22727C47.5226 8.914 46.7727 9.43612 46.8296 10.1671L47.2094 14.5055C47.2758 15.2269 48.1017 15.6161 48.6998 15.1985L49.4023 14.7143C55.6488 24.777 53.9685 38.1813 45.2348 46.3454C36.6435 54.3766 23.4006 55.3544 13.7461 48.6712C13.1005 48.2251 12.2082 48.3864 11.762 49.032C11.3158 49.6775 11.4772 50.5699 12.1227 51.016C16.8978 54.3197 22.4513 55.943 27.9953 55.943C34.9347 55.943 41.8552 53.3988 47.1809 48.4244C56.9303 39.3015 58.81 24.2929 51.7566 13.072Z" fill="#3DCFB6"/>
<path d="M43.9722 4.9271C33.226 -2.51552 18.4831 -1.42381 8.91406 7.51872C-1.08221 16.8695 -2.87642 31.8117 4.57569 43.2224L3.8827 43.6971C3.28463 44.1148 3.36057 45.0166 4.0156 45.3299L7.94576 47.2C8.61028 47.5133 9.36023 46.9912 9.30328 46.2602L8.92355 41.9218C8.8571 41.2004 8.03119 40.8111 7.43313 41.2288L6.9205 41.5896C0.29429 31.3465 1.89863 17.9707 10.8601 9.59772C19.4514 1.56653 32.6944 0.579244 42.3489 7.2719C42.9944 7.71808 43.8868 7.5567 44.3329 6.91116C44.7791 6.26563 44.6177 5.37328 43.9722 4.9271Z" fill="#3DCFB6"/>
</g>
<defs>
<clipPath id="clip0_3311_5749">
<rect width="56" height="55.943" fill="white"/>
</clipPath>
</defs>
</svg>
